<svg xmlns="http://www.w3.org/2000/svg" viewBox="0 0 512 512" role="img" aria-label="Pile 42">
  <defs>
    <radialGradient id="gold-face" cx="36%" cy="28%" r="72%">
      <stop offset="0" stop-color="#fff2a7"/>
      <stop offset=".46" stop-color="#f3bf3a"/>
      <stop offset="1" stop-color="#a86813"/>
    </radialGradient>
    <linearGradient id="rim" x1="112" y1="78" x2="414" y2="448" gradientUnits="userSpaceOnUse">
      <stop offset="0" stop-color="#fff6bc"/>
      <stop offset=".34" stop-color="#d99018"/>
      <stop offset=".72" stop-color="#7c430d"/>
      <stop offset="1" stop-color="#f6d46c"/>
    </linearGradient>
    <filter id="coin-shadow" x="-20%" y="-20%" width="140%" height="140%">
      <feDropShadow dx="0" dy="18" stdDeviation="18" flood-color="#3a2407" flood-opacity=".35"/>
    </filter>
    <filter id="engraved" x="-10%" y="-10%" width="120%" height="120%">
      <feDropShadow dx="0" dy="5" stdDeviation="1.5" flood-color="#fff4b4" flood-opacity=".7"/>
      <feDropShadow dx="0" dy="-5" stdDeviation="1.5" flood-color="#6f3b09" flood-opacity=".42"/>
    </filter>
  </defs>

  <circle cx="256" cy="256" r="228" fill="url(#rim)" filter="url(#coin-shadow)"/>
  <circle cx="256" cy="256" r="206" fill="#7a430f" opacity=".32"/>
  <circle cx="256" cy="256" r="190" fill="url(#gold-face)"/>
  <circle cx="256" cy="256" r="164" fill="none" stroke="#8a510f" stroke-width="8" opacity=".42"/>
  <circle cx="256" cy="256" r="146" fill="none" stroke="#ffe995" stroke-width="5" opacity=".7"/>

  <g fill="#7a3f08" opacity=".5">
    <path d="M256 61l8 27 28-3-19 21 14 25-31-12-31 12 14-25-19-21 28 3z"/>
    <path d="M256 381l8 27 28-3-19 21 14 25-31-12-31 12 14-25-19-21 28 3z"/>
    <path d="M61 256l27-8-3-28 21 19 25-14-12 31 12 31-25-14-21 19 3-28z"/>
    <path d="M381 256l27-8-3-28 21 19 25-14-12 31 12 31-25-14-21 19 3-28z"/>
  </g>

  <text
    x="256"
    y="305"
    text-anchor="middle"
    font-family="Arial Black, Impact, system-ui, sans-serif"
    font-size="156"
    font-weight="900"
    letter-spacing="0"
    fill="#6c3908"
    filter="url(#engraved)">42</text>
</svg>
